<svg xmlns="http://www.w3.org/2000/svg" version="1.1" xmlnsXlink="http://www.w3.org/1999/xlink" xmlnsSvgjs="http://svgjs.dev/svgjs" width="100%" height="100%" viewBox="0 0 1000 600"><rect width="1000" height="600" x="0" y="0" fill="#2cb1bc"/><g><rect width="333.3333333333333" height="333.3333333333333" rx="13.333333333333334" ry="13.333333333333334" y="221.50585367538633" fill="#ffffff" transform="matrix(0.6272466641531902,0,0,0.6272466641531902,0,56.52006998685603)" x="199.2836456298828"/><path d="M310.6675761564112 463.17251516262115L289.2390053765978 463.17251516262115L309.3580523865337 313.17251970392726L326.7390042412713 313.17251970392726L366.1437649530393 387.51775554833546L405.1616209146162 313.17251970392726L422.72114419251886 313.17251970392726L442.66161977928965 463.17251516262115L421.23304899947624 463.17251516262115L406.0247161265809 340.8213283906588L411.38185882153425 341.6844236026235L366.3818601839261 427.60704004890306L320.51876633435324 341.6844236026235L325.87590902930657 340.8213283906588L310.6675761564112 463.17251516262115Z " fill="#2cb1bc" transform="matrix(0.6272466641531902,0,0,0.6272466641531902,0,56.52006998685603)"/><path d="M631.7397824493886 423.6988318326805L615.9503091174123 423.6988318326805L630.7748701902123 313.17251850884674L643.5818874483707 313.17251850884674L672.6169745199493 367.9532190411755L701.3669738785894 313.17251850884674L714.305570081181 313.17251850884674L728.9985522095478 423.6988318326805L713.2090788775716 423.6988318326805L702.0029387766829 333.54532507191055L705.9503071096769 334.18128997000406L672.7924131125269 397.4926920664144L638.9985542172833 334.18128997000406L642.9459225502773 333.54532507191055L631.7397824493886 423.6988318326805ZM763.2529374103075 425.27777916587814L763.2529374103075 425.27777916587814Q756.0818849387016 425.27777916587814 750.7090780410152 422.361112564277Q745.3362711433289 419.4444459626758 742.3757448935834 414.3786566020001Q739.4152186438378 409.3347970653966 739.4152186438378 402.86549896410077L739.4152186438378 402.86549896410077Q739.4152186438378 396.30848156651615 742.2880255972946 391.61549921506764Q745.1827623748235 386.90058703954696 750.0292534947773 383.7865520212961Q754.8976744388034 380.67251700304524 760.8845164105111 378.80848195690913Q766.8932882062909 376.96637673484526 773.3187266594423 376.13304342010207Q779.7660949366659 375.2997101053589 785.687147436157 375.2339206331423L785.687147436157 375.2339206331423Q785.687147436157 364.1812893007589 781.3450422698636 360.7821665695696Q777.0029371035702 357.3830438383803 768.7792530764991 357.3830438383803L768.7792530764991 357.3830438383803Q764.4371479102057 357.3830438383803 759.5029374939631 358.7207631067838Q754.5687270777205 360.05848237518734 748.4064465134353 364.33479806926425L748.4064465134353 364.33479806926425L746.3669728747217 352.7997106072927Q751.0160955780259 349.24707910759804 757.9678498089098 347.01023705223474Q764.9196040397939 344.75146517279927 772.5731126409879 344.75146517279927L772.5731126409879 344.75146517279927Q782.3538141771843 344.75146517279927 788.3625859729641 348.19444755213294Q794.3713577687439 351.6155001073945 797.1345156018398 359.7514648381767Q799.8976734349357 367.8874295689589 799.8976734349357 381.85672750294344L799.8976734349357 381.85672750294344L799.8976734349357 397.6462008349197Q799.8976734349357 403.1725165011114 800.4020593885961 406.76900764895043Q800.9064453422565 410.36549879678944 802.7704803883925 412.1418145466368Q804.6345154345286 413.91813029648415 808.7353925360279 413.91813029648415L808.7353925360279 413.91813029648415L810.1608311007202 413.91813029648415L807.9459188694292 425.27777916587814L806.8274978417475 425.27777916587814Q799.9634629071522 425.27777916587814 796.2134629908079 423.9400598974746Q792.4634630744636 422.6023406290711 790.4897789079665 420.0584810366971Q788.5160947414695 417.5365512683953 786.9371474082718 413.91813029648415L786.9371474082718 413.91813029648415Q782.5950422419784 418.96198983308767 776.6739897424873 422.1198844994829Q770.7529372429962 425.27777916587814 763.2529374103075 425.27777916587814ZM765.9503057711867 413.91813029648415L765.9503057711867 413.91813029648415Q771.6301302058838 413.91813029648415 776.9590774554257 411.0672531670995Q782.2880247049677 408.2163760377149 785.687147436157 403.47953403812204L785.687147436157 403.47953403812204L785.687147436157 385.01462216933874Q774.3932880389796 385.4093590026381 767.3976741599512 387.22953440062986Q760.423990104995 389.0497097986215 757.1783761423111 392.66813077053274Q753.932762179627 396.30848156651615 753.932762179627 402.07602529750193L753.932762179627 402.07602529750193Q753.932762179627 408.3040953340037 757.288025262672 411.1111128152439Q760.643288345717 413.91813029648415 765.9503057711867 413.91813029648415ZM829.1081990990917 423.6988318326805L813.1432871745379 423.6988318326805L840.1608304314751 385.168130937844L813.7792520726315 346.3304125059969L829.7222341731131 346.3304125059969L849.1520583010727 376.96637673484526L867.0029350958347 346.3304125059969L883.5818820944098 346.3304125059969L858.1432861706703 383.91813096572923L884.524864529514 423.6988318326805L868.5818824290324 423.6988318326805L848.9985495325674 393.2163763723375L829.1081990990917 423.6988318326805ZM958.581880421297 380.2777801697458L958.581880421297 393.852341270431L911.2134604253682 393.852341270431L911.2134604253682 380.2777801697458L958.581880421297 380.2777801697458ZM966.6301258557904 423.6988318326805L932.6827581920415 327.86550063721353L937.0906528305516 327.86550063721353L903.1432851668026 423.6988318326805L887.3538118348264 423.6988318326805L927.0029337573445 313.17251850884674L942.7924070893208 313.17251850884674L982.4195991877667 423.6988318326805L966.6301258557904 423.6988318326805ZM987.9459148539585 461.11111169983536L983.2090728543656 461.90058536643414L981.630125521168 451.0233926266283Q986.2792482244721 450.54093649704015 988.7792481687017 449.24707687678097Q991.257318288859 447.9312874324496 992.2003007239631 444.7076032938378Q993.1432831590672 441.4619893311538 993.1432831590672 435.2339192946521L993.1432831590672 435.2339192946521L993.1432831590672 346.3304125059969L1007.3538091578458 346.3304125059969L1007.3538091578458 440.5847963682662Q1007.3538091578458 448.0190067287384 1004.1739846673785 452.2733925987431Q1000.9722303528389 456.54970829282 996.47661641804 458.52339245931705Q991.959072659169 460.4970766258141 987.9459148539585 461.11111169983536L987.9459148539585 461.11111169983536ZM1007.3538091578458 328.961991840823L993.1432831590672 328.961991840823L993.1432831590672 313.17251850884674L1007.3538091578458 313.17251850884674L1007.3538091578458 328.961991840823ZM1058.0555624127473 423.6988318326805L1042.0906504881937 423.6988318326805L1018.8888966198174 346.3304125059969L1035.6213523868978 346.3304125059969L1050.46784328377 408.0628672692096L1066.8932815138396 348.6988335057933L1081.5643338181344 348.6988335057933L1098.1432808167094 408.0628672692096L1112.9897717135814 346.3304125059969L1129.7222274806618 346.3304125059969L1106.3669648437804 423.6988318326805L1090.423982743299 423.6988318326805L1074.3055620502396 366.5497103005554L1058.0555624127473 423.6988318326805ZM1158.472226839302 425.27777916587814L1158.472226839302 425.27777916587814Q1151.279244543624 425.27777916587814 1145.9064376459376 422.361112564277Q1140.5555605723234 419.4444459626758 1137.5950343225777 414.3786566020001Q1134.6345080728322 409.3347970653966 1134.6345080728322 402.86549896410077L1134.6345080728322 402.86549896410077Q1134.6345080728322 396.30848156651615 1137.507315026289 391.61549921506764Q1140.3801219797458 386.90058703954696 1145.2485429237718 383.7865520212961Q1150.0950340437257 380.67251700304524 1156.1038058395056 378.80848195690913Q1162.090647811213 376.96637673484526 1168.538016088437 376.13304342010207Q1174.9634545415884 375.2997101053589 1180.8845070410794 375.2339206331423L1180.8845070410794 375.2339206331423Q1180.8845070410794 364.1812893007589 1176.5424018747858 360.7821665695696Q1172.2002967084925 357.3830438383803 1163.9985425054938 357.3830438383803L1163.9985425054938 357.3830438383803Q1159.6564373392002 357.3830438383803 1154.7222269229576 358.7207631067838Q1149.788016506715 360.05848237518734 1143.6257359424299 364.33479806926425L1143.6257359424299 364.33479806926425L1141.564332479644 352.7997106072927Q1146.2353850070203 349.24707910759804 1153.1871392379044 347.01023705223474Q1160.1169636447162 344.75146517279927 1167.7924020699825 344.75146517279927L1167.7924020699825 344.75146517279927Q1177.5731036061788 344.75146517279927 1183.5818754019588 348.19444755213294Q1189.5687173736662 351.6155001073945 1192.331875206762 359.7514648381767Q1195.095033039858 367.8874295689589 1195.095033039858 381.85672750294344L1195.095033039858 381.85672750294344L1195.095033039858 397.6462008349197Q1195.095033039858 403.1725165011114 1195.6213488175906 406.76900764895043Q1196.1257347712508 410.36549879678944 1197.989769817387 412.1418145466368Q1199.831875039451 413.91813029648415 1203.9327521409502 413.91813029648415L1203.9327521409502 413.91813029648415L1205.3581907056425 413.91813029648415L1203.1432784743515 425.27777916587814L1202.046787270742 425.27777916587814Q1195.1827523361467 425.27777916587814 1191.4327524198025 423.9400598974746Q1187.682752503458 422.6023406290711 1185.709068336961 420.0584810366971Q1183.735384170464 417.5365512683953 1182.1564368372665 413.91813029648415L1182.1564368372665 413.91813029648415Q1177.814331670973 418.96198983308767 1171.893279171482 422.1198844994829Q1165.9722266719907 425.27777916587814 1158.472226839302 425.27777916587814ZM1161.147665376109 413.91813029648415L1161.147665376109 413.91813029648415Q1166.8274898108061 413.91813029648415 1172.156437060348 411.0672531670995Q1177.48538430989 408.2163760377149 1180.8845070410794 403.47953403812204L1180.8845070410794 403.47953403812204L1180.8845070410794 385.01462216933874Q1169.5906476439018 385.4093590026381 1162.6169635889457 387.22953440062986Q1155.6213497099175 389.0497097986215 1152.3976655713054 392.66813077053274Q1149.1520516086216 396.30848156651615 1149.1520516086216 402.07602529750193L1149.1520516086216 402.07602529750193Q1149.1520516086216 408.3040953340037 1152.5073146916666 411.1111128152439Q1155.8625777747116 413.91813029648415 1161.147665376109 413.91813029648415ZM1230.467839268299 423.6988318326805L1216.2573132695206 423.6988318326805L1216.2573132695206 346.3304125059969L1227.3099446019041 346.3304125059969L1230.1608217312887 361.176903402869L1224.634506065097 358.80848240307256Q1232.4415234347962 350.12427207048563 1239.8976636193406 347.42690370960634Q1247.353803803885 344.75146517279927 1254.4590668032743 344.75146517279927L1254.4590668032743 344.75146517279927Q1271.4327506351488 344.75146517279927 1278.7353820511876 354.53216670899565Q1286.0380134672268 364.33479806926425 1286.0380134672268 381.06725383634466L1286.0380134672268 381.06725383634466L1286.0380134672268 423.6988318326805L1271.827487468448 423.6988318326805L1271.827487468448 381.06725383634466Q1271.827487468448 368.74269270777427 1267.2660840614326 363.06286827307724Q1262.682750830345 357.3830438383803 1251.630119497962 357.3830438383803L1251.630119497962 357.3830438383803Q1243.8011723041905 357.3830438383803 1237.2880145547501 360.82602621771395Q1230.7748568053098 364.2470787729755 1228.735383166596 371.7470786056642L1228.735383166596 371.7470786056642L1230.467839268299 363.06286827307724L1230.467839268299 423.6988318326805ZM1335.7748544629517 463.17251516262115L1335.7748544629517 463.17251516262115Q1325.2046792601568 463.17251516262115 1316.871346112725 460.56286609803067Q1308.5380129652926 457.9532170334401 1303.7792411416276 452.8216382005478Q1298.9985394938908 447.6900593676555 1298.9985394938908 440.12427006275027L1298.9985394938908 440.12427006275027Q1298.9985394938908 433.80848072995974 1302.5950306417294 429.26900714701657Q1306.1695919654962 424.72953356407345 1312.4195918260702 421.9663757309776L1312.4195918260702 421.9663757309776Q1308.7134515578705 420.14620033298587 1306.7616972154456 417.6681302128285Q1304.8318726970929 415.16813026859893 1304.8318726970929 412.16374437070897L1304.8318726970929 412.16374437070897Q1304.8318726970929 408.6111128710143 1307.0029252802397 405.73830591755757Q1309.1739778633864 402.86549896410077 1313.9985391592681 400.9576042698203L1313.9985391592681 400.9576042698203Q1307.5292410579723 396.94444646460965 1304.042399030494 390.1023413540866Q1300.5774868270883 383.2821660676358 1300.5774868270883 374.90497327205946L1300.5774868270883 374.90497327205946Q1300.5774868270883 366.4619910042666 1304.371346391577 359.64181571781575Q1308.1432761319934 352.7997106072927 1315.292398779527 348.7865528020821Q1322.4415214270607 344.75146517279927 1332.4634510280512 344.75146517279927L1332.4634510280512 344.75146517279927Q1337.8362579257378 344.75146517279927 1342.616959573475 346.3304125059969Q1347.3976612212123 347.9093598391945 1351.4108190264228 350.76023696857914L1351.4108190264228 350.76023696857914Q1354.9634505261174 348.6988335057933 1359.8318714701436 347.36111423738976Q1364.678362590097 346.0233949689862 1370.687134385877 346.0233949689862L1370.687134385877 346.0233949689862Q1371.0818712191767 346.0233949689862 1371.345029108043 346.0233949689862Q1371.6301168209811 346.0233949689862 1371.937134357992 346.0233949689862L1371.937134357992 346.0233949689862L1370.2046782562888 355.497078968172Q1369.2616958211852 355.497078968172 1368.3845028582973 355.497078968172Q1367.5292397194821 355.497078968172 1366.5643274603058 355.497078968172L1366.5643274603058 355.497078968172Q1365.7748537937068 355.497078968172 1362.9459064883945 355.71637720889385Q1360.09502935901 355.95760527368793 1357.7266083592135 356.59357017178144L1357.7266083592135 356.59357017178144Q1360.9722223218973 360.3874297362702 1362.7485380717449 365.0804120877187Q1364.524853821592 369.7733944391672 1364.524853821592 374.90497327205946L1364.524853821592 374.90497327205946Q1364.524853821592 383.7426923731517 1360.6871346089588 390.7383062521801Q1356.8713452203979 397.73392013120844 1349.6783629247197 401.7909375845635Q1342.4853806290416 405.8479550379185 1332.4634510280512 405.8479550379185L1332.4634510280512 405.8479550379185Q1329.6345037227388 405.8479550379185 1327.0248546581483 405.4970778527635Q1324.4152055935579 405.1462006676084 1322.0467845937615 404.4444462972984L1322.0467845937615 404.4444462972984Q1318.406433797778 405.6286567971966 1318.406433797778 408.5453233987978L1318.406433797778 408.5453233987978Q1318.406433797778 410.2777795005007 1320.467837260564 411.57163912075987Q1322.5292407233496 412.8874285650912 1327.090644130365 413.58918293540125L1327.090644130365 413.58918293540125L1347.7923980545115 416.9005863703019Q1360.336257423804 418.8742705367989 1367.1564327102546 424.1812879622687Q1373.998537820778 429.4663755636663 1373.998537820778 439.18128762764616L1373.998537820778 439.18128762764616Q1373.998537820778 447.2295330621396 1369.3055554693292 452.5584803116816Q1364.5906432938086 457.88742756122355 1355.9941522575104 460.5190064498862Q1347.3976612212123 463.17251516262115 1335.7748544629517 463.17251516262115ZM1337.0467842591388 450.54093649704015L1337.0467842591388 450.54093649704015Q1347.9459068230171 450.54093649704015 1353.7792400262192 447.7339190157999Q1359.634503053494 444.9269015345597 1359.634503053494 439.48830516465677L1359.634503053494 439.48830516465677Q1359.634503053494 435.2339192946521 1355.950292609366 432.7777789985669Q1352.2880119893107 430.32163870248166 1345.4239770547151 429.0716387303669L1345.4239770547151 429.0716387303669L1323.3845038621648 425.3654984621669Q1319.0423986958713 427.2514633323752 1315.8187145572597 430.4532176469148Q1312.5731005945759 433.6549719614544 1312.5731005945759 437.90935783145915L1312.5731005945759 437.90935783145915Q1312.5731005945759 444.5321647012603 1319.2397671125213 447.53655059915025Q1325.9064336304668 450.54093649704015 1337.0467842591388 450.54093649704015ZM1332.4634510280512 394.48830616852445L1332.4634510280512 394.48830616852445Q1341.4766087217213 394.48830616852445 1346.213450721314 389.07163962269374Q1350.9502927209069 383.67690290093515 1350.9502927209069 375.0584820405648L1350.9502927209069 375.0584820405648Q1350.9502927209069 366.76900854127723 1346.213450721314 361.4400612917353Q1341.4766087217213 356.11111404219326 1332.4634510280512 356.11111404219326L1332.4634510280512 356.11111404219326Q1323.4722231584537 356.11111404219326 1318.8011706310772 361.4400612917353Q1314.1520479277733 366.76900854127723 1314.1520479277733 375.0584820405648L1314.1520479277733 375.0584820405648Q1314.1520479277733 383.67690290093515 1318.8011706310772 389.07163962269374Q1323.4722231584537 394.48830616852445 1332.4634510280512 394.48830616852445ZM1392.1564321525507 346.3304125059969L1382.0467832552713 346.3304125059969L1379.1959061258867 313.17251850884674L1394.985379457863 313.17251850884674L1392.1564321525507 346.3304125059969Z " fill="#ffffff" transform="matrix(0.6272466641531902,0,0,0.6272466641531902,0,56.52006998685603)"/></g></svg>