<?xml version="1.0" encoding="UTF-8"?>
<svg version="1.1" viewBox="0 0 1e3 600" xmlns="http://www.w3.org/2000/svg">
<rect width="1e3" height="600" fill="#fff"/>
<rect transform="matrix(.76089 0 0 .76089 0 31.277)" x="164.28" y="186.5" width="333.33" height="333.33" rx="13.333" ry="13.333" fill="#2cb1bc"/>
<path transform="matrix(.76089 0 0 .76089 0 31.277)" d="m375.52 428.17h-89.137v-150h20.357v131.58h68.78v18.423z" fill="#fff"/>
<path transform="matrix(.76089 0 0 .76089 0 31.277)" d="m663.05 426.2h-82.1v-138.16h18.75v121.19h63.35v16.968zm35.526 1.9737q-8.9638 0-15.68-3.6458-6.716-3.6458-10.417-9.9781-3.7007-6.3048-3.7007-14.391 0-8.1963 3.591-14.062 3.6184-5.8936 9.6765-9.7862 6.0855-3.8925 13.569-6.2226 7.511-2.3026 15.543-3.3443 8.0592-1.0417 15.461-1.1239 0-13.816-5.4276-18.065-5.4276-4.2489-15.707-4.2489-5.4276 0-11.595 1.6721-6.1678 1.6721-13.871 7.0175l-2.5493-14.419q5.8114-4.4408 14.501-7.2368 8.6897-2.8235 18.257-2.8235 12.226 0 19.737 4.3037 7.511 4.2763 10.965 14.446 3.4539 10.17 3.4539 27.632v19.737q0 6.9079 0.63048 11.404 0.63048 4.4956 2.9605 6.716 2.33 2.2204 7.4561 2.2204h1.7818l-2.7686 14.2h-1.398q-8.58 0-13.268-1.6721-4.6875-1.6721-7.1546-4.852-2.4671-3.1524-4.4408-7.6754-5.4276 6.3048-12.829 10.252-7.4013 3.9474-16.776 3.9474zm3.3717-14.2q7.0998 0 13.761-3.5636 6.6612-3.5636 10.91-9.4846v-23.081q-14.117 0.49342-22.862 2.7686-8.7171 2.2752-12.774 6.7982-4.057 4.5504-4.057 11.76 0 7.7851 4.1941 11.294 4.1941 3.5088 10.828 3.5088zm116.45 14.2q-10.17 0-19.709-4.8794-9.5121-4.8794-13.268-14.474l4.3586-3.1524-3.3717 20.532h-15.789v-148.03h17.763v70.258l-3.7555-2.7686q4.9342-7.977 14.117-13.076 9.1831-5.0713 19.655-5.0713 13.514 0 23.273 7.045 9.7862 7.0724 15.049 18.558 5.2906 11.513 5.2906 24.726 0 14.117-5.8388 25.521-5.8114 11.376-15.68 18.092-9.8684 6.716-22.094 6.716zm-2.193-15.789q8.4978 0 14.72-4.6875 6.2226-4.6875 9.5669-12.527 3.3443-7.8399 3.3443-17.325 0-9.8684-3.3443-17.654-3.3443-7.8125-9.5669-12.336-6.2226-4.5504-14.72-4.5504-7.5932 0-14.145 3.8103-6.5789 3.7829-10.609 11.431-4.057 7.648-4.057 19.298 0 12.144 4.057 19.737 4.0296 7.5932 10.609 11.212 6.5515 3.591 14.145 3.591zm110.53 15.789q-17.05 0-28.701-7.0175-11.65-6.9901-17.626-18.586-5.9759-11.595-5.9759-25.521 0-13.514 5.5921-24.753 5.5647-11.266 16.173-18.01 10.609-6.7708 25.603-6.7708 12.061 0 21.464 4.7971 9.4298 4.7697 14.803 13.898 5.4002 9.1283 5.4002 22.149 0 2.0833-0.16447 4.4956-0.13706 2.4123-0.63048 4.989h-70.066q1.2884 13.432 6.4145 20.916 5.1261 7.511 12.911 10.554 7.8125 3.0702 16.996 3.0702 6.6886 0 14.008-1.3706 7.2917-1.398 13.816-4.3586l2.3575 14.008q-5.6195 2.4671-13.706 4.989-8.0866 2.5219-18.668 2.5219zm-32.566-62.555h50.932q0-6.8257-2.5768-11.842-2.5493-5.0439-7.7851-7.7577-5.2357-2.7138-13.322-2.7138-11.842 0-18.202 5.8662-6.3596 5.8662-9.0461 16.447zm104.82 60.581h-17.763v-148.03h17.763v94.929l35.526-43.613h21.711l-38.487 45.011 39.474 51.7h-21.711l-36.513-49.15v49.15zm92.352 1.9737q-8.9638 0-15.68-3.6458-6.716-3.6458-10.417-9.9781-3.7007-6.3048-3.7007-14.391 0-8.1963 3.591-14.062 3.6184-5.8936 9.6765-9.7862 6.0855-3.8925 13.569-6.2226 7.511-2.3026 15.543-3.3443 8.0592-1.0417 15.461-1.1239 0-13.816-5.4276-18.065-5.4276-4.2489-15.707-4.2489-5.4276 0-11.595 1.6721-6.1678 1.6721-13.871 7.0175l-2.5493-14.419q5.8114-4.4408 14.501-7.2368 8.6897-2.8235 18.257-2.8235 12.226 0 19.737 4.3037 7.511 4.2763 10.965 14.446 3.4539 10.17 3.4539 27.632v19.737q0 6.9079 0.63048 11.404 0.63048 4.4956 2.9605 6.716 2.33 2.2204 7.4561 2.2204h1.7818l-2.7686 14.2h-1.398q-8.58 0-13.268-1.6721-4.6875-1.6721-7.1546-4.852-2.4671-3.1524-4.4408-7.6754-5.4276 6.3048-12.829 10.252-7.4013 3.9474-16.776 3.9474zm3.3717-14.2q7.0998 0 13.761-3.5636 6.6612-3.5636 10.91-9.4846v-23.081q-14.117 0.49342-22.862 2.7686-8.7171 2.2752-12.774 6.7982-4.057 4.5504-4.057 11.76 0 7.7851 4.1941 11.294 4.1941 3.5088 10.828 3.5088z" fill="#2cb1bc"/>
</svg>
