<svg xmlns="http://www.w3.org/2000/svg" version="1.1" xmlns:xlink="http://www.w3.org/1999/xlink" xmlns:svgjs="http://svgjs.dev/svgjs" width="100%" height="100%" viewBox="0 0 1000 600"><rect width="1000" height="600" x="0" y="0" fill="black"/><g><circle r="166.66666666666666" cx="467.2303263346354" cy="489.4524875111325" fill="#03136e" transform="matrix(0.4158853613691363,0,0,0.4158853613691364,0,96.44387622599027)"/><path d="M396.53481582306324 564.4524976588477L312.51730858961076 564.4524976588477L312.51730858961076 414.45250211180166L329.9686699392476 414.45250211180166L329.9686699392476 548.8688405339212L396.53481582306324 548.8688405339212L396.53481582306324 564.4524976588477ZM468.26633120334327 429.8318790871505L468.26633120334327 564.4524976588477L450.7274212181731 564.4524976588477L450.7274212181731 429.8318790871505L403.50952378721576 429.8318790871505L403.50952378721576 414.45250211180166L515.2507656062119 414.45250211180166L515.2507656062119 429.8318790871505L468.26633120334327 429.8318790871505ZM621.9433694427878 564.4524976588477L537.9258622093353 564.4524976588477L537.9258622093353 414.45250211180166L555.3772235589722 414.45250211180166L555.3772235589722 548.8688405339212L621.9433694427878 548.8688405339212L621.9433694427878 564.4524976588477Z " fill="#ffffff" transform="matrix(0.4158853613691363,0,0,0.4158853613691364,0,96.44387622599027)"/><path d="M795.1815979788195 562.5571887861238L717.2303365879203 562.5571887861238L717.2303365879203 423.3875175290131L733.4216718820355 423.3875175290131L733.4216718820355 548.0987054298403L795.1815979788195 548.0987054298403L795.1815979788195 562.5571887861238ZM855.6418851222296 456.528310840045L855.6418851222296 456.528310840045Q874.2971192654494 456.528310840045 883.3404403160087 464.8947366023888Q892.383761366568 473.26116236473257 892.383761366568 491.64563839266606L892.383761366568 491.64563839266606L892.383761366568 562.5571887861238L880.8494656553755 562.5571887861238L877.81697476417 547.12397621481L877.0588520413687 547.12397621481Q872.6725705737321 552.8369724473489 867.9072277446949 556.7088134959417Q863.1689607271862 560.5535787330059 856.9144482640748 562.5030371630667Q850.687011612492 564.4524955931273 841.6436905619328 564.4524955931273L841.6436905619328 564.4524955931273Q832.1130049038582 564.4524955931273 824.7483841680734 561.122170775107Q817.3837634322886 557.7918459570866 813.1328610222951 551.04996888646Q808.9090344238302 544.2810160043048 808.9090344238302 533.910980188843L808.9090344238302 533.910980188843Q808.9090344238302 518.288236936829 821.2826802924099 509.9218111744851Q833.6563261609896 501.52830960061266 858.97220994025 500.7701868778113L858.97220994025 500.7701868778113L876.9505487952542 500.0120641550099L876.9505487952542 493.649248445784Q876.9505487952542 480.1113426814736 871.1563251281293 474.69618037574946Q865.3350256494758 469.2810180700253 854.7754591533137 469.2810180700253L854.7754591533137 469.2810180700253Q846.5985640716704 469.2810180700253 839.1797917128282 471.66368948454397Q831.7339435424575 474.01928508753394 825.0732939064168 477.26838247096845L825.0732939064168 477.26838247096845L820.2267236427937 465.27379796378943Q827.266434640235 461.6456392189543 836.4180589369089 459.1005129352639Q845.5426074220541 456.528310840045 855.6418851222296 456.528310840045ZM876.7610181145538 520.779211597462L876.7610181145538 511.16729850480164L860.8675167472534 511.81711798148854Q841.3729324466465 512.5752407042899 833.3584922341747 518.2070095022431Q825.3711278332316 523.8117024886676 825.3711278332316 534.1005108695434L825.3711278332316 534.1005108695434Q825.3711278332316 543.0355286739882 830.7862901389558 547.3135068955103Q836.2285282562085 551.618560928561 845.1635460606534 551.618560928561L845.1635460606534 551.618560928561Q859.0534373748359 551.618560928561 867.9072277446949 543.9019546429042Q876.7610181145538 536.1853483572472 876.7610181145538 520.779211597462L876.7610181145538 520.779211597462ZM924.9288868239702 414.45249972456827L940.7411607566847 414.45249972456827L940.7411607566847 451.46513408419287Q940.7411607566847 457.85502560494734 940.4162510183412 463.83877995277254Q940.0642654684692 469.84961011212636 939.8747347877688 473.1799349301467L939.8747347877688 473.1799349301467L940.7411607566847 473.1799349301467Q945.0191389782068 466.1402239327053 953.1148066252645 461.2665778575536Q961.210474272322 456.42000759393045 973.7736508216021 456.42000759393045L973.7736508216021 456.42000759393045Q993.3765383683235 456.42000759393045 1005.0462131371589 469.98498916976945Q1016.6888120944659 483.54997074560845 1016.6888120944659 510.3008725358858L1016.6888120944659 510.3008725358858Q1016.6888120944659 527.9001500294893 1011.3548772233277 540.0030377827827Q1006.0480181637181 552.0788497245476 996.3278018249431 558.2792105646017Q986.6075854861683 564.4524955931273 973.3945894602014 564.4524955931273L973.3945894602014 564.4524955931273Q961.0209435916216 564.4524955931273 953.0606550022071 559.8496076332617Q945.1274422243213 555.2196438618676 940.8223881912705 548.5589942258268L940.8223881912705 548.5589942258268L939.6039766724826 548.5589942258268L936.3548792890481 562.5571887861238L924.9288868239702 562.5571887861238L924.9288868239702 414.45249972456827ZM971.201448726383 469.660079431426L971.201448726383 469.660079431426Q959.856683695891 469.660079431426 953.1960340598503 474.0734367105912Q946.5353844238095 478.513869801285 943.6382725902472 487.3947359826726Q940.7411607566847 496.30267797558884 940.7411607566847 509.9218111744851L940.7411607566847 509.9218111744851L940.7411607566847 510.76116133187236Q940.7411607566847 530.4723521247083 947.2935071466109 540.8965395632272Q953.8729293480658 551.3207270017463 971.201448726383 551.3207270017463L971.201448726383 551.3207270017463Q985.768235328781 551.3207270017463 993.0516286299801 540.6528572594696Q1000.335021931179 530.0120633287218 1000.335021931179 510.19256928977126L1000.335021931179 510.19256928977126Q1000.335021931179 490.02108970094883 993.1328560645659 479.84058456618743Q985.9577660094815 469.660079431426 971.201448726383 469.660079431426ZM1084.3783409160178 456.3387801593446L1084.3783409160178 456.3387801593446Q1097.6996401880992 456.3387801593446 1107.2303258461739 462.24130707258394Q1116.73393569272 468.1167581742946 1121.7971124485716 478.73047629351396Q1126.8332133928952 489.3441944127333 1126.8332133928952 503.5319196537306L1126.8332133928952 503.5319196537306L1126.8332133928952 513.3333634270913L1054.7844789152355 513.3333634270913Q1055.0552370305218 531.7178394550249 1063.9090274003806 541.3297525476851Q1072.7628177702395 550.9416656403455 1088.8458498182404 550.9416656403455L1088.8458498182404 550.9416656403455Q1098.7555968377155 550.9416656403455 1106.363899877258 549.1275862679279Q1113.9722029168006 547.3135068955103 1122.1761738099726 543.7936513967898L1122.1761738099726 543.7936513967898L1122.1761738099726 557.7106185225007Q1114.2700368436153 561.2304740212214 1106.4992789349012 562.8550227129388Q1098.7555968377155 564.4524955931273 1088.1960303415535 564.4524955931273L1088.1960303415535 564.4524955931273Q1073.14187913164 564.4524955931273 1061.95956897032 558.3333621876591Q1050.7772588089997 552.187152970662 1044.5768979689456 540.273795898069Q1038.4036129404199 528.3875146370044 1038.4036129404199 511.16729850480164L1038.4036129404199 511.16729850480164Q1038.4036129404199 494.2990679224709 1044.0624575499014 481.97957367694846Q1049.7213021593834 469.660079431426 1060.0642621633165 462.9994297953853Q1070.380146355721 456.3387801593446 1084.3783409160178 456.3387801593446ZM1084.1888102353178 469.2810180700253L1084.1888102353178 469.2810180700253Q1071.5173304399232 469.2810180700253 1064.0173306464953 477.56621639778325Q1056.4902550415386 485.8243389140126 1055.0552370305218 500.68895944322543L1055.0552370305218 500.68895944322543L1110.2628167373796 500.68895944322543Q1110.1815893027933 491.34780446585125 1107.365704903817 484.2539418453526Q1104.5498205048407 477.160079224854 1098.8368242723013 473.23408655320395Q1093.1238280397624 469.2810180700253 1084.1888102353178 469.2810180700253ZM1153.6653426177586 414.45249972456827L1169.3693133043585 414.45249972456827L1169.3693133043585 491.34780446585125Q1169.3693133043585 495.1654938913868 1169.0985551890722 500.6348078201682Q1168.8007212622574 506.1041217489496 1168.6111905815574 510.3008725358858L1168.6111905815574 510.3008725358858L1169.2880858697727 510.3008725358858Q1171.2916959228905 507.8369736867813 1175.1364611599547 502.96332761162955Q1178.9812263970189 498.11675734800644 1181.6617317383525 495.1654938913868L1181.6617317383525 495.1654938913868L1216.318770494987 458.23408696634806L1234.865701392092 458.23408696634806L1192.8981935227298 502.7737969309292L1237.9252680948262 562.5571887861238L1218.8638967786774 562.5571887861238L1182.040793099753 513.1438327463909L1169.3693133043585 524.7593558921692L1169.3693133043585 562.5571887861238L1153.6653426177586 562.5571887861238L1153.6653426177586 414.45249972456827ZM1295.1093820432734 456.528310840045L1295.1093820432734 456.528310840045Q1313.7916919980216 456.528310840045 1322.835013048581 464.8947366023888Q1331.8783340991404 473.26116236473257 1331.8783340991404 491.64563839266606L1331.8783340991404 491.64563839266606L1331.8783340991404 562.5571887861238L1320.3440383879479 562.5571887861238L1317.3115474967422 547.12397621481L1316.553424773941 547.12397621481Q1312.1671433063043 552.8369724473489 1307.401800477267 556.7088134959417Q1302.6364576482297 560.5535787330059 1296.409020996647 562.5030371630667Q1290.1815843450645 564.4524955931273 1281.1382632945051 564.4524955931273L1281.1382632945051 564.4524955931273Q1271.6075776364305 564.4524955931273 1264.2429569006458 561.122170775107Q1256.8512603533322 557.7918459570866 1252.6274337548675 551.04996888646Q1248.376531344874 544.2810160043048 1248.376531344874 533.910980188843L1248.376531344874 533.910980188843Q1248.376531344874 518.288236936829 1260.7501772134538 509.9218111744851Q1273.1238230820331 501.52830960061266 1298.4667826728223 500.7701868778113L1298.4667826728223 500.7701868778113L1316.4451215278264 500.0120641550099L1316.4451215278264 493.649248445784Q1316.4451215278264 480.1113426814736 1310.6508978607017 474.69618037574946Q1304.829598382048 469.2810180700253 1294.270031885886 469.2810180700253L1294.270031885886 469.2810180700253Q1286.0931368042425 469.2810180700253 1278.647288633872 471.66368948454397Q1271.2285162750295 474.01928508753394 1264.567866638989 477.26838247096845L1264.567866638989 477.26838247096845L1259.721296375366 465.27379796378943Q1266.7610073728074 461.6456392189543 1275.8855558579526 459.1005129352639Q1285.0371801546266 456.528310840045 1295.1093820432734 456.528310840045ZM1316.2555908471263 520.779211597462L1316.2555908471263 511.16729850480164L1300.362089479826 511.81711798148854Q1280.84042936769 512.5752407042899 1272.8530649667473 518.2070095022431Q1264.8657005658038 523.8117024886676 1264.8657005658038 534.1005108695434L1264.8657005658038 534.1005108695434Q1264.8657005658038 543.0355286739882 1270.280862871528 547.3135068955103Q1275.696025177252 551.618560928561 1284.6581187932256 551.618560928561L1284.6581187932256 551.618560928561Q1298.5480101074081 551.618560928561 1307.401800477267 543.9019546429042Q1316.2555908471263 536.1853483572472 1316.2555908471263 520.779211597462L1316.2555908471263 520.779211597462ZM1460.1906049332742 437.65647020459625L1460.1906049332742 562.5571887861238L1443.8909663930444 562.5571887861238L1443.8909663930444 437.65647020459625L1400.1093791512649 437.65647020459625L1400.1093791512649 423.3875175290131L1503.7826614943533 423.3875175290131L1503.7826614943533 437.65647020459625L1460.1906049332742 437.65647020459625ZM1522.437895637573 414.45249972456827L1538.2230937587592 414.45249972456827L1538.2230937587592 458.6943757623346Q1538.2230937587592 462.5120651878701 1538.0335630780587 466.3568304249343Q1537.8440323973587 470.2286714735271 1537.3837436013719 473.45069304543296L1537.3837436013719 473.45069304543296L1538.4126244394593 473.45069304543296Q1541.661721822894 467.9272274935943 1546.6707469556886 464.19076550264464Q1551.6526962769549 460.4272277001663 1558.0425877977095 458.4777692701056Q1564.4054035069357 456.528310840045 1571.5534177504915 456.528310840045L1571.5534177504915 456.528310840045Q1584.1165942997714 456.528310840045 1592.5371716851723 460.5084551347522Q1600.9577490705738 464.51567524098806 1605.208651480567 472.8821010033319Q1609.4324780790316 481.2756025772043 1609.4324780790316 494.59690184928576L1609.4324780790316 494.59690184928576L1609.4324780790316 562.5571887861238L1593.8368106385465 562.5571887861238L1593.8368106385465 495.65285849890194Q1593.8368106385465 482.60231734210674 1587.8801321022497 476.13119838676636Q1581.923453565953 469.660079431426 1569.6581109434878 469.660079431426L1569.6581109434878 469.660079431426Q1558.0425877977095 469.660079431426 1551.1382558579112 474.0734367105912Q1544.2339239181129 478.513869801285 1541.228508838436 487.06982624432914Q1538.2230937587592 495.65285849890194 1538.2230937587592 508.02650436748166L1538.2230937587592 508.02650436748166L1538.2230937587592 562.5571887861238L1522.437895637573 562.5571887861238L1522.437895637573 414.45249972456827ZM1682.1581078449071 456.3387801593446L1682.1581078449071 456.3387801593446Q1695.4794071169886 456.3387801593446 1705.0100927750632 462.24130707258394Q1714.513702621609 468.1167581742946 1719.576879377461 478.73047629351396Q1724.6129803217846 489.3441944127333 1724.6129803217846 503.5319196537306L1724.6129803217846 503.5319196537306L1724.6129803217846 513.3333634270913L1652.5642458441248 513.3333634270913Q1652.8350039594106 531.7178394550249 1661.68879432927 541.3297525476851Q1670.5425846991288 550.9416656403455 1686.6256167471297 550.9416656403455L1686.6256167471297 550.9416656403455Q1696.5353637666049 550.9416656403455 1704.143666806147 549.1275862679279Q1711.7519698456895 547.3135068955103 1719.955940738862 543.7936513967898L1719.955940738862 543.7936513967898L1719.955940738862 557.7106185225007Q1712.0498037725047 561.2304740212214 1704.27904586379 562.8550227129388Q1696.5353637666049 564.4524955931273 1685.9757972704429 564.4524955931273L1685.9757972704429 564.4524955931273Q1670.9216460605294 564.4524955931273 1659.739335899209 558.3333621876591Q1648.5570257378886 552.187152970662 1642.3566648978344 540.273795898069Q1636.1833798693092 528.3875146370044 1636.1833798693092 511.16729850480164L1636.1833798693092 511.16729850480164Q1636.1833798693092 494.2990679224709 1641.8422244787907 481.97957367694846Q1647.5010690882727 469.660079431426 1657.8440290922058 462.9994297953853Q1668.1599132846104 456.3387801593446 1682.1581078449071 456.3387801593446ZM1681.9685771642066 469.2810180700253L1681.9685771642066 469.2810180700253Q1669.2970973688125 469.2810180700253 1661.7970975753842 477.56621639778325Q1654.270021970428 485.8243389140126 1652.8350039594106 500.68895944322543L1652.8350039594106 500.68895944322543L1708.0425836662685 500.68895944322543Q1707.9613562316827 491.34780446585125 1705.1454718327063 484.2539418453526Q1702.3295874337296 477.160079224854 1696.6165912011907 473.23408655320395Q1690.9035949686518 469.2810180700253 1681.9685771642066 469.2810180700253ZM1882.437885722115 562.5571887861238L1804.4866243312158 562.5571887861238L1804.4866243312158 423.3875175290131L1820.6508838138025 423.3875175290131L1820.6508838138025 548.0987054298403L1882.437885722115 548.0987054298403L1882.437885722115 562.5571887861238ZM1942.8710970539964 456.528310840045L1942.8710970539964 456.528310840045Q1961.5263311972162 456.528310840045 1970.5696522477756 464.8947366023888Q1979.6129732983345 473.26116236473257 1979.6129732983345 491.64563839266606L1979.6129732983345 491.64563839266606L1979.6129732983345 562.5571887861238L1968.105753398671 562.5571887861238L1965.0461866959367 547.12397621481L1964.2880639731352 547.12397621481Q1959.9288583170273 552.8369724473489 1955.16351548799 556.7088134959417Q1950.3981726589532 560.5535787330059 1944.1707360073701 562.5030371630667Q1937.9432993557875 564.4524955931273 1928.8999783052282 564.4524955931273L1928.8999783052282 564.4524955931273Q1919.3692926471535 564.4524955931273 1911.9775960998404 561.122170775107Q1904.6129753640553 557.7918459570866 1900.3891487655906 551.04996888646Q1896.138246355597 544.2810160043048 1896.138246355597 533.910980188843L1896.138246355597 533.910980188843Q1896.138246355597 518.288236936829 1908.5118922241768 509.9218111744851Q1920.8855380927566 501.52830960061266 1946.201421872017 500.7701868778113L1946.201421872017 500.7701868778113L1964.2068365385494 500.0120641550099L1964.2068365385494 493.649248445784Q1964.2068365385494 480.1113426814736 1958.3855370598963 474.69618037574946Q1952.591313392771 469.2810180700253 1942.031746896609 469.2810180700253L1942.031746896609 469.2810180700253Q1933.827776003437 469.2810180700253 1926.409003644595 471.66368948454397Q1918.990231285753 474.01928508753394 1912.3295816497125 477.26838247096845L1912.3295816497125 477.26838247096845L1907.483011386089 465.27379796378943Q1914.5227223835304 461.6456392189543 1923.6472708686756 459.1005129352639Q1932.7988951653497 456.528310840045 1942.8710970539964 456.528310840045ZM1964.0173058578494 520.779211597462L1964.0173058578494 511.16729850480164L1948.123804490549 511.81711798148854Q1928.6021443784134 512.5752407042899 1920.6147799774703 518.2070095022431Q1912.6003397649984 523.8117024886676 1912.6003397649984 534.1005108695434L1912.6003397649984 534.1005108695434Q1912.6003397649984 543.0355286739882 1918.042577882251 547.3135068955103Q1923.4577401879756 551.618560928561 1932.4198338039487 551.618560928561L1932.4198338039487 551.618560928561Q1946.3097251181312 551.618560928561 1955.16351548799 543.9019546429042Q1964.0173058578494 536.1853483572472 1964.0173058578494 520.779211597462L1964.0173058578494 520.779211597462ZM2012.1851745672657 414.45249972456827L2027.9703726884513 414.45249972456827L2027.9703726884513 451.46513408419287Q2027.9703726884513 457.85502560494734 2027.6454629501081 463.83877995277254Q2027.3205532117645 469.84961011212636 2027.1310225310644 473.1799349301467L2027.1310225310644 473.1799349301467L2027.9703726884513 473.1799349301467Q2032.2483509099734 466.1402239327053 2040.3440185570312 461.2665778575536Q2048.4396862040885 456.42000759393045 2061.002862753369 456.42000759393045L2061.002862753369 456.42000759393045Q2080.60575030009 456.42000759393045 2092.275425068926 469.98498916976945Q2103.9450998377615 483.54997074560845 2103.9450998377615 510.3008725358858L2103.9450998377615 510.3008725358858Q2103.9450998377615 527.9001500294893 2098.611164966623 540.0030377827827Q2093.277230095485 552.0788497245476 2083.55701375671 558.2792105646017Q2073.8638732294635 564.4524955931273 2060.6238013919683 564.4524955931273L2060.6238013919683 564.4524955931273Q2048.2501555233885 564.4524955931273 2040.3169427455027 559.8496076332617Q2032.356654156088 555.2196438618676 2028.078675934566 548.5589942258268L2028.078675934566 548.5589942258268L2026.8331886042492 548.5589942258268L2023.6111670323435 562.5571887861238L2012.1851745672657 562.5571887861238L2012.1851745672657 414.45249972456827ZM2058.43066065815 469.660079431426L2058.43066065815 469.660079431426Q2047.1129714391864 469.660079431426 2040.4523218031459 474.0734367105912Q2033.791672167105 478.513869801285 2030.8945603335424 487.3947359826726Q2027.9703726884513 496.30267797558884 2027.9703726884513 509.9218111744851L2027.9703726884513 509.9218111744851L2027.9703726884513 510.76116133187236Q2027.9703726884513 530.4723521247083 2034.549794889906 540.8965395632272Q2041.1021412798327 551.3207270017463 2058.43066065815 551.3207270017463L2058.43066065815 551.3207270017463Q2072.9974472605477 551.3207270017463 2080.2808405617466 540.6528572594696Q2087.564233862946 530.0120633287218 2087.564233862946 510.19256928977126L2087.564233862946 510.19256928977126Q2087.564233862946 490.02108970094883 2080.3891438078613 479.84058456618743Q2073.186977941248 469.660079431426 2058.43066065815 469.660079431426Z " fill="white" transform="matrix(0.4158853613691363,0,0,0.4158853613691364,0,96.44387622599027)"/></g></svg>