<svg xmlns="http://www.w3.org/2000/svg" version="1.1" xmlns:xlink="http://www.w3.org/1999/xlink" xmlns:svgjs="http://svgjs.dev/svgjs" width="100%" height="100%" viewBox="0 0 1000 600"><rect width="1000" height="600" x="0" y="0" fill="#040c18"/><g><circle r="166.66666666666666" cx="381.28908793131507" cy="403.51129572261743" fill="#ffffff" transform="matrix(0.5824183043152703,0,0,0.5824183043152702,0,64.98764641202843)"/><path d="M387.5342278962147 478.51131075282586L373.2929831827986 478.51131075282586L322.92333487264267 345.75839640583894L322.07703139582077 345.75839640583894Q322.48559169497616 349.9607309114371 322.8066033585983 356.0015867632345Q323.1276150222203 362.07162549354297 323.331895171798 369.192247850251Q323.5361753213757 376.312870206959 323.5361753213757 383.72532134877804L323.5361753213757 383.72532134877804L323.5361753213757 478.51131075282586L307.31049486920494 478.51131075282586L307.31049486920494 328.51131520577974L333.16652523003825 328.51131520577974L380.67625144610656 453.26812084072566L381.37664053037287 453.26812084072566L429.61593870921865 328.51131520577974L455.26768892047426 328.51131520577974L455.26768892047426 478.51131075282586L438.020607720415 478.51131075282586L438.020607720415 382.4704575728008Q438.020607720415 375.81676127227036 438.2248878699927 369.1046992147177Q438.4291680195704 362.363454278654 438.75017968319247 356.38096418387875Q439.0420084683035 350.3692912105925 439.36302013192557 345.96267655541664L439.36302013192557 345.96267655541664L438.54589953361483 345.96267655541664L387.5342278962147 478.51131075282586Z " fill="#040c18" transform="matrix(0.5824183043152703,0,0,0.5824183043152702,0,64.98764641202843)"/><path d="M689.9866034786337 441.57181441721593L679.566674653011 441.57181441721593L642.7125821263205 344.44014181935114L642.09336504447 344.44014181935114Q642.3922974288116 347.51487491543656 642.6271728736515 351.93480374105934Q642.8620483184914 356.3760848798494 643.0115145106622 361.58604929266073Q643.1609807028331 366.79601370547215 643.1609807028331 372.2195012499561L643.1609807028331 372.2195012499561L643.1609807028331 441.57181441721593L631.2890945818366 441.57181441721593L631.2890945818366 331.8209247375006L650.2072440480288 331.8209247375006L684.9688098843277 423.1020635275362L685.481265400342 423.1020635275362L720.7766390658223 331.8209247375006L739.5453223398437 331.8209247375006L739.5453223398437 441.57181441721593L726.9261052579932 441.57181441721593L726.9261052579932 371.30135178376395Q726.9261052579932 366.43302438162874 727.075571450164 361.52199235315896Q727.2250376423348 356.58960801152193 727.4599130871746 352.2123838122337Q727.6734362188472 347.8138072997782 727.9083116636871 344.58960801152193L727.9083116636871 344.58960801152193L727.3104468950038 344.58960801152193L689.9866034786337 441.57181441721593ZM798.4563543683134 357.9561560542266L798.4563543683134 357.9561560542266Q813.1680981405555 357.9561560542266 820.2997707384202 364.5540208229099Q827.4314433362849 371.15188559159316 827.4314433362849 385.6501062321625L827.4314433362849 385.6501062321625L827.4314433362849 441.57181441721593L818.3567102401996 441.57181441721593L815.9652511654665 429.4009959118778L815.3460340836159 429.4009959118778Q811.9083116636871 433.9063339901696 808.1503045462493 436.9597147730878Q804.3922974288116 439.9917432428387 799.481265400342 441.52910979088136Q794.5702333718722 443.0664763389241 787.4385607740073 443.0664763389241L787.4385607740073 443.0664763389241Q779.922546539132 443.0664763389241 774.1147173576373 440.44014181935114Q768.2855358629754 437.8138072997782 764.9545750088828 432.4970813211305Q761.6022618416231 427.15900302931556 761.6022618416231 418.98106708625505L761.6022618416231 418.98106708625505Q761.6022618416231 406.66078238874616 771.3602689590607 400.0629176200629Q781.1182760764985 393.44370053821234 801.0826888878864 392.84583576952906L801.0826888878864 392.84583576952906L815.2819771441141 392.2479710008458L815.2819771441141 387.2301774065398Q815.2819771441141 376.5540208229099 810.6912298131533 372.2835581894579Q806.1218347953597 368.01309555600596 797.7944326601285 368.01309555600596L797.7944326601285 368.01309555600596Q791.3246817704487 368.01309555600596 785.4741479626194 369.89209911472483Q779.6236141547903 371.7497503602764 774.3709451156444 374.3120279403476L774.3709451156444 374.3120279403476L770.5488810587049 364.8529532072515Q776.1004824821924 361.9917432428387 783.296212019559 359.98462580511625Q790.5132938700928 357.9561560542266 798.4563543683134 357.9561560542266ZM815.1325109519433 408.62519520013404L815.1325109519433 401.0451240257568L802.5987031227619 401.5575795417711Q787.2036853291675 402.15544431045436 780.9047529448259 406.5967254492444Q774.584468247317 411.01665427486716 774.584468247317 419.13053327842584L774.584468247317 419.13053327842584Q774.584468247317 426.1767966236216 778.8762831939363 429.5504621040487Q783.1467458273883 432.94547989764294 790.2143614857512 432.94547989764294L790.2143614857512 432.94547989764294Q801.1680981405555 432.94547989764294 808.1503045462493 426.8600706449739Q815.1325109519433 420.7746613923049 815.1325109519433 408.62519520013404L815.1325109519433 408.62519520013404ZM842.9118703825484 441.57181441721593L872.6983472508757 399.4650528513796L844.2570661120857 359.30135178376395L858.5204113078153 359.30135178376395L880.2143614857512 390.9668322108102L901.822902411018 359.30135178376395L915.9367814145768 359.30135178376395L887.4955002757868 399.4650528513796L917.516852588954 441.57181441721593L903.2535073932245 441.57181441721593L880.2143614857512 408.0273304314508L857.025749386107 441.57181441721593L842.9118703825484 441.57181441721593ZM1057.4385607740073 441.57181441721593L1044.2428312366408 441.57181441721593L1030.7268170017653 406.7461916414152L986.7410518772102 406.7461916414152L973.2890945818366 441.57181441721593L960.3922974288116 441.57181441721593L1003.3317992081711 331.3725261609882L1014.7979913789895 331.3725261609882L1057.4385607740073 441.57181441721593ZM991.0115145106622 395.4081133496002L1026.8834006316588 395.4081133496002L1014.0506604181355 360.79601370547215Q1013.6022618416231 359.4508179759348 1012.5987031227619 356.3760848798494Q1011.5737920907334 353.30135178376395 1010.5275287455377 349.99174324283865Q1009.481265400342 346.6821347019134 1008.7979913789895 344.65366495102376L1008.7979913789895 344.65366495102376Q1008.0506604181355 347.7283980471092 1007.196567891445 350.7817788300273Q1006.3211230515874 353.8138072997782 1005.5097351512316 356.4187895061839Q1004.6769949377085 359.0024193994223 1004.0791301690251 360.79601370547215L1004.0791301690251 360.79601370547215L991.0115145106622 395.4081133496002ZM1060.8335785676018 478.51131619657536L1060.8335785676018 478.51131619657536Q1056.990162197495 478.51131619657536 1054.1503045462493 477.93480374105934Q1051.2890945818365 477.3796435987106 1049.196567891445 476.6323126378565L1049.196567891445 476.6323126378565L1049.196567891445 466.48996388340805Q1051.5239700266764 467.2372948442622 1053.9154291014095 467.6643411076074Q1056.3282404893098 468.07003505778533 1059.3175643327263 468.07003505778533L1059.3175643327263 468.07003505778533Q1064.4207671797012 468.07003505778533 1067.5809095284558 465.20882509337247Q1070.7410518772103 462.3689674421269 1070.7410518772103 454.8529532072515L1070.7410518772103 454.8529532072515L1070.7410518772103 359.30135178376395L1083.1894504537227 359.30135178376395L1083.1894504537227 454.5540208229099Q1083.1894504537227 462.07003505778533 1080.7979913789895 467.42946566276754Q1078.3851799910892 472.81024858091695 1073.431443336285 475.65010623216256Q1068.4777066814806 478.51131619657536 1060.8335785676018 478.51131619657536ZM1069.6093792793454 336.71060445280307L1069.6093792793454 336.71060445280307Q1069.6093792793454 332.5041987588529 1071.7446105960714 330.51843363429776Q1073.8798419127975 328.5113161965753 1077.1040412010536 328.5113161965753L1077.1040412010536 328.5113161965753Q1080.2001266103064 328.5113161965753 1082.399414866534 330.51843363429776Q1084.620055435929 332.5041987588529 1084.620055435929 336.71060445280307L1084.620055435929 336.71060445280307Q1084.620055435929 340.8316008940842 1082.399414866534 342.8600706449739Q1080.2001266103064 344.88854039586363 1077.1040412010536 344.88854039586363L1077.1040412010536 344.88854039586363Q1073.8798419127975 344.88854039586363 1071.7446105960714 342.8600706449739Q1069.6093792793454 340.8316008940842 1069.6093792793454 336.71060445280307ZM1190.9972796352174 441.4223482250451L1176.4990589946478 441.4223482250451L1161.8727244750748 393.52910979088136Q1160.890518069381 390.454376694796 1160.0150732295233 387.48640516454685Q1159.160980702833 384.51843363429776 1158.4563543683134 381.7853375488885Q1157.7303757206266 379.030889150312 1157.1752155782779 376.6821347019134Q1156.598703122762 374.3120279403476 1156.2357137989184 372.58249057379953L1156.2357137989184 372.58249057379953L1155.7019059697368 372.58249057379953Q1155.402973585395 374.3120279403476 1154.890518069381 376.6821347019134Q1154.3567102401996 379.030889150312 1153.6520839056798 381.82804217522306Q1152.9261052579932 384.6038428869668 1152.1147173576373 387.6358713567177Q1151.281977144114 390.6678998264686 1150.2357137989184 393.76398523572124L1150.2357137989184 393.76398523572124L1134.9047529448258 441.4223482250451L1120.8762831939362 441.4223482250451L1098.2001266103061 359.1518855915931L1111.1182760764984 359.1518855915931L1122.9688098843276 404.5682556983547Q1124.1858917348616 409.07359377664653 1125.2748597063917 413.45081797593474Q1126.363827677922 417.84939448839026 1127.1538632651107 421.7141631716643Q1127.943898852299 425.57893185493833 1128.3068881761426 428.44014181935114L1128.3068881761426 428.44014181935114L1128.904752944826 428.44014181935114Q1129.3531515213383 426.5611382606323 1129.9296639768545 423.93480374105934Q1130.484824119203 421.3084692214864 1131.1894504537227 418.34049769123726Q1131.9154291014095 415.3725261609882 1132.7481693149325 412.404554630739Q1133.5595572152884 409.43658310048994 1134.3922974288116 406.81024858091695L1134.3922974288116 406.81024858091695L1149.5524397775662 359.1518855915931L1162.9830447597724 359.1518855915931L1177.6307315925126 406.7461916414152Q1178.7624041903773 410.33338025351486 1179.8513721619076 414.2408535631234Q1180.940340133438 418.14832687273196 1181.837137286463 421.79957242433335Q1182.7339344394877 425.42946566276754 1183.0969237633312 428.2906756271803L1183.0969237633312 428.2906756271803L1183.7161408451816 428.2906756271803Q1184.0150732295233 425.7283980471091 1184.8264611298791 421.9703909296714Q1185.6592013434024 418.233736125401 1186.7481693149327 413.7283980471091Q1187.837137286463 409.2230599688173 1189.0328668238294 404.5682556983547L1189.0328668238294 404.5682556983547L1201.0542191369968 359.1518855915931L1213.737493158349 359.1518855915931L1190.9972796352174 441.4223482250451ZM1259.4527956494524 357.9561560542266L1259.4527956494524 357.9561560542266Q1274.1645394216941 357.9561560542266 1281.2962120195589 364.5540208229099Q1288.4278846174236 371.15188559159316 1288.4278846174236 385.6501062321625L1288.4278846174236 385.6501062321625L1288.4278846174236 441.57181441721593L1279.3531515213383 441.57181441721593L1276.940340133438 429.4009959118778L1276.3424753647548 429.4009959118778Q1272.8834006316586 433.9063339901696 1269.125393514221 436.9597147730878Q1265.3887387099505 439.9917432428387 1260.4563543683134 441.52910979088136Q1255.5453223398438 443.0664763389241 1248.4136497419788 443.0664763389241L1248.4136497419788 443.0664763389241Q1240.9189878202708 443.0664763389241 1235.0898063256088 440.44014181935114Q1229.281977144114 437.8138072997782 1225.9296639768543 432.4970813211305Q1222.598703122762 427.15900302931556 1222.598703122762 418.98106708625505L1222.598703122762 418.98106708625505Q1222.598703122762 406.66078238874616 1232.3567102401994 400.0629176200629Q1242.1147173576371 393.44370053821234 1262.0791301690251 392.84583576952906L1262.0791301690251 392.84583576952906L1276.2570661120856 392.2479710008458L1276.2570661120856 387.2301774065398Q1276.2570661120856 376.5540208229099 1271.687671094292 372.2835581894579Q1267.0969237633312 368.01309555600596 1258.7695216280997 368.01309555600596L1258.7695216280997 368.01309555600596Q1252.3211230515874 368.01309555600596 1246.4705892437582 369.89209911472483Q1240.5987031227617 371.7497503602764 1235.346034083616 374.3120279403476L1235.346034083616 374.3120279403476L1231.5239700266764 364.8529532072515Q1237.0755714501638 361.9917432428387 1244.2926533006978 359.98462580511625Q1251.4883828380644 357.9561560542266 1259.4527956494524 357.9561560542266ZM1276.107599919915 408.62519520013404L1276.107599919915 401.0451240257568L1263.5737920907334 401.5575795417711Q1248.2001266103064 402.15544431045436 1241.8798419127975 406.5967254492444Q1235.5809095284558 411.01665427486716 1235.5809095284558 419.13053327842584L1235.5809095284558 419.13053327842584Q1235.5809095284558 426.1767966236216 1239.8513721619076 429.5504621040487Q1244.143187108527 432.94547989764294 1251.1894504537229 432.94547989764294L1251.1894504537229 432.94547989764294Q1262.143187108527 432.94547989764294 1269.125393514221 426.8600706449739Q1276.107599919915 420.7746613923049 1276.107599919915 408.62519520013404L1276.107599919915 408.62519520013404ZM1353.061336574719 357.8066898620558L1353.061336574719 357.8066898620558Q1367.6876710942922 357.8066898620558 1375.2036853291675 364.9597147730878Q1382.719699564043 372.1340919972871 1382.719699564043 387.97750836739385L1382.719699564043 387.97750836739385L1382.719699564043 441.57181441721593L1370.399414866534 441.57181441721593L1370.399414866534 388.81024858091695Q1370.399414866534 378.51843363429776 1365.701905969737 373.4152307873227Q1361.025749386107 368.3120279403476 1351.3317992081709 368.3120279403476L1351.3317992081709 368.3120279403476Q1337.6663187811248 368.3120279403476 1332.1147173576371 376.0415653068956Q1326.5631159341497 383.7711026734437 1326.5631159341497 398.48284644568565L1326.5631159341497 398.48284644568565L1326.5631159341497 441.57181441721593L1314.0933650444701 441.57181441721593L1314.0933650444701 359.30135178376395L1324.1503045462493 359.30135178376395L1326.0293081049683 371.15188559159316L1326.7125821263205 371.15188559159316Q1329.3389166458935 366.79601370547215 1333.3958561476727 363.84939448839026Q1337.4527956494524 360.8814229581412 1342.4705892437585 359.34405641009846Q1347.5097351512316 357.8066898620558 1353.061336574719 357.8066898620558ZM1431.3602689590607 478.51131619657536L1431.3602689590607 478.51131619657536Q1415.1325109519432 478.51131619657536 1406.3567102401994 472.46861157024085Q1397.5809095284558 466.42590694390634 1397.5809095284558 455.5362272286038L1397.5809095284558 455.5362272286038Q1397.5809095284558 447.80668986205575 1402.4919415569254 442.31914537807Q1407.4029735853953 436.8529532072515 1416.1147173576371 435.0380065880344L1416.1147173576371 435.0380065880344Q1412.890518069381 433.5433446663262 1410.6058205604843 430.5326685097426Q1408.2997707384202 427.5433446663262 1408.2997707384202 423.6358713567177L1408.2997707384202 423.6358713567177Q1408.2997707384202 419.13053327842584 1410.819343692157 415.7141631716643Q1413.3389166458935 412.29779306490275 1418.5061764323702 409.1376507161483L1418.5061764323702 409.1376507161483Q1412.057777855858 406.51131619657536 1408.0435429804131 400.25508843856824Q1404.0293081049683 393.97750836739385 1404.0293081049683 385.6501062321625L1404.0293081049683 385.6501062321625Q1404.0293081049683 376.78889626774975 1407.7019059697368 370.51131619657536Q1411.3958561476727 364.25508843856824 1418.3567102401994 360.94547989764294Q1425.3389166458935 357.65722366988496 1435.246389955502 357.65722366988496L1435.246389955502 357.65722366988496Q1437.4243258985625 357.65722366988496 1439.6449664679576 357.828042175223Q1441.8656070373524 358.02021299372836 1443.8940767882423 358.3618500044045Q1445.9225465391319 358.70348701508067 1447.4172084608401 359.1518855915931L1447.4172084608401 359.1518855915931L1475.6449664679576 359.1518855915931L1475.6449664679576 367.1803553424828L1460.484824119203 369.0593589012017Q1462.7268170017653 371.98462580511625 1464.2428312366408 376.1056222463974Q1465.737493158349 380.2479710008458 1465.737493158349 385.26576459515184L1465.737493158349 385.26576459515184Q1465.737493158349 397.58604929266073 1457.4100910231175 404.8244834563618Q1449.061336574719 412.0629176200629 1434.4990589946478 412.0629176200629L1434.4990589946478 412.0629176200629Q1431.061336574719 412.0629176200629 1427.4527956494521 411.4650528513796L1427.4527956494521 411.4650528513796Q1423.7801977846834 413.4935226022693 1421.85848959963 415.9703909296714Q1419.9367814145767 418.44725925707354 1419.9367814145767 421.6714585453298L1419.9367814145767 421.6714585453298Q1419.9367814145767 424.08426993323013 1421.4100910231175 425.51487491543656Q1422.8620483184914 426.9241275844757 1425.6378490302352 427.5646969794935Q1428.4350020551462 428.20526637451127 1432.3211230515874 428.20526637451127L1432.3211230515874 428.20526637451127L1446.819343692157 428.20526637451127Q1460.2499486743634 428.20526637451127 1467.4243258985625 433.84227705066786Q1474.598703122762 439.47928772682445 1474.598703122762 450.2835581894579L1474.598703122762 450.2835581894579Q1474.598703122762 463.9490386165042 1463.4741479626193 471.2301774065398Q1452.3709451156444 478.51131619657536 1431.3602689590607 478.51131619657536ZM1431.723258282904 468.75330907913764L1431.723258282904 468.75330907913764Q1441.9296639768543 468.75330907913764 1448.655642624541 466.6821347019134Q1455.381621272228 464.6109603246892 1458.7125821263205 460.74619164141524Q1462.0648952935803 456.8814229581412 1462.0648952935803 451.5646969794935L1462.0648952935803 451.5646969794935Q1462.0648952935803 446.6109603246892 1459.8015500978508 444.09138737095253Q1457.5595572152886 441.57181441721593 1453.2036853291675 440.7177218905255Q1448.8478134430463 439.84227705066786 1442.5275287455377 439.84227705066786L1442.5275287455377 439.84227705066786L1428.2855358629754 439.84227705066786Q1422.7125821263205 439.84227705066786 1418.5915856850395 441.57181441721593Q1414.470589243758 443.30135178376395 1412.2499486743632 446.675017264191Q1410.0293081049683 450.048682744618 1410.0293081049683 455.08782865209133L1410.0293081049683 455.08782865209133Q1410.0293081049683 461.77110267344364 1415.6663187811248 465.251529719707Q1421.3033294572813 468.75330907913764 1431.723258282904 468.75330907913764ZM1434.9474575711604 402.9881845239775L1434.9474575711604 402.9881845239775Q1443.8940767882423 402.9881845239775 1448.399414866534 398.48284644568565Q1452.904752944826 393.97750836739385 1452.904752944826 385.3511738478209L1452.904752944826 385.3511738478209Q1452.904752944826 376.1056222463974 1448.314005613865 371.4935226022693Q1443.7446105960714 366.8814229581412 1434.7979913789895 366.8814229581412L1434.7979913789895 366.8814229581412Q1426.2570661120856 366.8814229581412 1421.6236141547904 371.6429887944401Q1417.0115145106622 376.404554630739 1417.0115145106622 385.5646969794935L1417.0115145106622 385.5646969794935Q1417.0115145106622 393.97750836739385 1421.6663187811248 398.48284644568565Q1426.3211230515874 402.9881845239775 1434.9474575711604 402.9881845239775ZM1488.8620483184914 331.8209247375006L1502.3567102401996 331.8209247375006L1499.516852588954 371.45081797593474L1491.637849030235 371.45081797593474L1488.8620483184914 331.8209247375006Z " fill="#ffffff" transform="matrix(0.5824183043152703,0,0,0.5824183043152702,0,64.98764641202843)"/></g></svg>