<svg width="195" height="99" viewBox="0 0 195 99" fill="none" xmlns="http://www.w3.org/2000/svg">
<g clip-path="url(#clip0_17_2)">
<rect width="195" height="99" fill="white"/>
<g filter="url(#filter0_i_17_2)">
<path d="M14.2181 31.8H23.8181L43.9781 72.6C44.4901 73.432 44.9061 74.424 45.2261 75.576C45.4821 76.536 45.6421 77.144 45.7061 77.4H46.0901C46.1541 77.144 46.3141 76.536 46.5701 75.576C46.8901 74.424 47.3061 73.432 47.8181 72.6L67.9781 31.8H77.5781V99H67.9781V56.76C67.9781 55.736 68.0421 54.008 68.1701 51.576L68.3621 48.6H67.9781L67.1141 51.576C66.9221 52.088 66.6341 52.92 66.2501 54.072C65.8661 55.16 65.4821 56.056 65.0981 56.76L49.7381 87H42.0581L26.6981 56.76C26.3141 56.056 25.9301 55.16 25.5461 54.072C25.1621 52.92 24.8741 52.088 24.6821 51.576L23.8181 48.6H23.4341L23.6261 51.576C23.7541 54.008 23.8181 55.736 23.8181 56.76V99H14.2181V31.8ZM89.0831 92.28C89.0831 89.208 89.8191 86.328 91.2911 83.64C92.8271 80.888 94.6831 78.424 96.8591 76.248C99.0991 74.008 102.011 71.384 105.595 68.376C108.923 65.56 111.547 63.224 113.467 61.368C115.387 59.448 116.987 57.368 118.267 55.128C119.611 52.888 120.283 50.552 120.283 48.12C120.283 45.112 119.099 42.616 116.731 40.632C114.427 38.584 111.291 37.56 107.323 37.56C103.867 37.56 100.539 38.296 97.3391 39.768C95.8671 40.472 94.7151 41.176 93.8831 41.88H92.9231L89.5631 36.12C90.7151 35.224 92.2831 34.36 94.2671 33.528C98.1071 31.736 102.779 30.84 108.283 30.84C112.763 30.84 116.635 31.64 119.899 33.24C123.163 34.776 125.627 36.92 127.291 39.672C129.019 42.424 129.883 45.56 129.883 49.08C129.883 52.344 129.051 55.448 127.387 58.392C125.787 61.272 123.803 63.896 121.435 66.264C119.067 68.568 115.995 71.352 112.219 74.616C107.611 78.584 104.187 81.848 101.947 84.408C99.7711 86.904 98.6831 89.528 98.6831 92.28H129.883V99H89.0831V92.28ZM142.843 31.8H159.163C167.227 31.8 173.243 33.592 177.211 37.176C181.179 40.76 183.163 46.008 183.163 52.92C183.163 63.16 178.779 69.72 170.011 72.6L186.043 99H175.003L160.123 74.04H152.443V99H142.843V31.8ZM159.163 67.32C168.763 67.32 173.563 62.52 173.563 52.92C173.563 43.32 168.763 38.52 159.163 38.52H152.443V67.32H159.163Z" fill="#2CB1BC"/>
</g>
</g>
<defs>
<filter id="filter0_i_17_2" x="14.2181" y="30.84" width="171.825" height="72.16" filterUnits="userSpaceOnUse" color-interpolation-filters="sRGB">
<feFlood flood-opacity="0" result="BackgroundImageFix"/>
<feBlend mode="normal" in="SourceGraphic" in2="BackgroundImageFix" result="shape"/>
<feColorMatrix in="SourceAlpha" type="matrix" values="0 0 0 0 0 0 0 0 0 0 0 0 0 0 0 0 0 0 127 0" result="hardAlpha"/>
<feOffset dy="4"/>
<feGaussianBlur stdDeviation="2"/>
<feComposite in2="hardAlpha" operator="arithmetic" k2="-1" k3="1"/>
<feColorMatrix type="matrix" values="0 0 0 0 0 0 0 0 0 0 0 0 0 0 0 0 0 0 0.25 0"/>
<feBlend mode="normal" in2="shape" result="effect1_innerShadow_17_2"/>
</filter>
<clipPath id="clip0_17_2">
<rect width="195" height="99" fill="white"/>
</clipPath>
</defs>
</svg>
