<svg width="87" height="35" viewBox="0 0 87 35" fill="none" xmlns="http://www.w3.org/2000/svg">
<g filter="url(#filter0_i_17_3)">
<path d="M0.32 1.4H5.12L15.2 21.8C15.456 22.216 15.664 22.712 15.824 23.288C15.952 23.768 16.032 24.072 16.064 24.2H16.256C16.288 24.072 16.368 23.768 16.496 23.288C16.656 22.712 16.864 22.216 17.12 21.8L27.2 1.4H32V35H27.2V13.88C27.2 13.368 27.232 12.504 27.296 11.288L27.392 9.8H27.2L26.768 11.288C26.672 11.544 26.528 11.96 26.336 12.536C26.144 13.08 25.952 13.528 25.76 13.88L18.08 29H14.24L6.56 13.88C6.368 13.528 6.176 13.08 5.984 12.536C5.792 11.96 5.648 11.544 5.552 11.288L5.12 9.8H4.928L5.024 11.288C5.088 12.504 5.12 13.368 5.12 13.88V35H0.32V1.4ZM37.7525 31.64C37.7525 30.104 38.1205 28.664 38.8565 27.32C39.6245 25.944 40.5525 24.712 41.6405 23.624C42.7605 22.504 44.2165 21.192 46.0085 19.688C47.6725 18.28 48.9845 17.112 49.9445 16.184C50.9045 15.224 51.7045 14.184 52.3445 13.064C53.0165 11.944 53.3525 10.776 53.3525 9.56C53.3525 8.056 52.7605 6.808 51.5765 5.816C50.4245 4.792 48.8565 4.28 46.8725 4.28C45.1445 4.28 43.4805 4.648 41.8805 5.384C41.1445 5.736 40.5685 6.088 40.1525 6.44H39.6725L37.9925 3.56C38.5685 3.112 39.3525 2.68 40.3445 2.264C42.2645 1.368 44.6005 0.919998 47.3525 0.919998C49.5925 0.919998 51.5285 1.32 53.1605 2.12C54.7925 2.888 56.0245 3.96 56.8565 5.336C57.7205 6.712 58.1525 8.28 58.1525 10.04C58.1525 11.672 57.7365 13.224 56.9045 14.696C56.1045 16.136 55.1125 17.448 53.9285 18.632C52.7445 19.784 51.2085 21.176 49.3205 22.808C47.0165 24.792 45.3045 26.424 44.1845 27.704C43.0965 28.952 42.5525 30.264 42.5525 31.64H58.1525V35H37.7525V31.64ZM64.6325 1.4H72.7925C76.8245 1.4 79.8325 2.296 81.8165 4.088C83.8005 5.88 84.7925 8.504 84.7925 11.96C84.7925 17.08 82.6005 20.36 78.2165 21.8L86.2325 35H80.7125L73.2725 22.52H69.4325V35H64.6325V1.4ZM72.7925 19.16C77.5925 19.16 79.9925 16.76 79.9925 11.96C79.9925 7.16 77.5925 4.76 72.7925 4.76H69.4325V19.16H72.7925Z" fill="#2CB1BC"/>
</g>
<defs>
<filter id="filter0_i_17_3" x="0.32" y="0.919998" width="85.9125" height="38.08" filterUnits="userSpaceOnUse" color-interpolation-filters="sRGB">
<feFlood flood-opacity="0" result="BackgroundImageFix"/>
<feBlend mode="normal" in="SourceGraphic" in2="BackgroundImageFix" result="shape"/>
<feColorMatrix in="SourceAlpha" type="matrix" values="0 0 0 0 0 0 0 0 0 0 0 0 0 0 0 0 0 0 127 0" result="hardAlpha"/>
<feOffset dy="4"/>
<feGaussianBlur stdDeviation="2"/>
<feComposite in2="hardAlpha" operator="arithmetic" k2="-1" k3="1"/>
<feColorMatrix type="matrix" values="0 0 0 0 0 0 0 0 0 0 0 0 0 0 0 0 0 0 0.25 0"/>
<feBlend mode="normal" in2="shape" result="effect1_innerShadow_17_3"/>
</filter>
</defs>
</svg>
